PathFileType	4	(X/Y/Z)	D:\TRACE\v60_Jaco2_6-2-23\ArmBodyNoDRS_DMP_1-platform.trc
DataRate	CameraRate	NumFrames	NumMarkers	Units	OrigDataRate	OrigDataStartFrame	OrigNumFrames
100.00	100.00	      54	5	mm	100.00	1	      5315
Frame#	Time	Left_Front			Right_Front			Left_Aft			Right_Aft			Post			
		X1	Y1	Z1	X2	Y2	Z2	X3	Y3	Z3	X4	Y4	Z4	X5	Y5	Z5	

1	0.000				780.23407	9.70498	-632.80103	-719.63080	6.96622	480.91235	698.13593	8.86804	583.44806	3.17799	1307.53552	-965.87146	
2	0.010				780.25824	9.71244	-632.77875	-719.59711	6.95556	480.91150	698.10217	8.88653	583.44263	3.25948	1307.51367	-965.89844	
3	0.020				780.33051	9.72502	-632.70844	-719.45026	6.76735	480.90543	698.11981	8.87840	583.49121	3.19115	1307.54285	-965.91339	
4	0.030				780.24390	9.65151	-632.75476	-719.59418	6.90015	480.94983	698.08704	8.87935	583.48096	3.12404	1307.52502	-965.86505	
5	0.040				780.29724	9.68134	-632.71667	-719.46619	6.77817	480.91919	698.07928	8.87282	583.45886	3.12165	1307.54358	-965.88983	
6	0.050				780.28180	9.70910	-632.74030	-719.61444	6.93945	480.92035	698.09039	8.86740	583.47766	3.16632	1307.56470	-965.90356	
7	0.060				780.30707	9.70569	-632.70532	-719.57965	6.93392	480.89795	698.08997	8.87000	583.47388	3.18478	1307.53906	-965.85144	
8	0.070				780.29407	9.73198	-632.70001	-719.61530	6.95626	480.89395	698.09662	8.89222	583.47888	3.27344	1307.51892	-965.87128	
9	0.080				780.25934	9.69285	-632.72217	-719.44464	6.71160	480.94666	698.10864	8.87861	583.48236	3.20791	1307.53784	-965.81708	
10	0.090				780.26733	9.69856	-632.72626	-719.43707	6.76223	480.93393	698.07965	8.89315	583.47974	3.13132	1307.52197	-965.87482	
11	0.100				780.32306	9.66729	-632.70227	-719.42816	6.75593	480.91684	698.08179	8.88000	583.42322	3.17277	1307.52344	-965.87384	
12	0.110				780.22388	9.73030	-632.78687	-719.47681	6.76884	480.85635	698.07776	8.89532	583.45947	3.13046	1307.57031	-965.89465	
13	0.120				780.29285	9.71101	-632.71417	-719.45148	6.80176	480.85794	698.08990	8.85834	583.45319	3.21958	1307.54846	-965.85040	
14	0.130				780.38306	9.72638	-632.66284	-719.45978	6.77451	480.88217	698.11359	8.85213	583.45844	3.21551	1307.52234	-965.85638	
15	0.140				780.24731	9.70924	-632.76367	-719.61475	6.93739	480.91272	698.11249	8.85073	583.45160	3.11510	1307.51270	-965.85620	
16	0.150				780.33673	9.71029	-632.69769	-719.44330	6.79241	480.90979	698.10260	8.87135	583.46149	3.08264	1307.54712	-965.94916	
17	0.160				780.33069	9.68729	-632.70490	-719.58240	6.96015	480.89951	698.09399	8.87022	583.46497	3.08214	1307.55627	-965.86560	
18	0.170				780.25122	9.72783	-632.68689	-719.58368	6.98220	480.92136	698.07520	8.88389	583.46570	3.12602	1307.55957	-965.86804	
19	0.180				780.31970	9.73159	-632.70984	-719.44958	6.78023	480.89218	698.12250	8.89783	583.47394	3.14339	1307.49731	-965.87091	
20	0.190				780.23242	9.70591	-632.74530	-719.59814	6.95673	480.91556	698.08563	8.86421	583.44904	3.13888	1307.55127	-965.87396	
21	0.200				780.24158	9.73216	-632.74567	-719.46515	6.79613	480.92685	698.11218	8.87445	583.47150	3.15523	1307.52576	-965.84857	
22	0.210				780.27966	9.71658	-632.71887	-719.59106	6.92594	480.88260	698.12097	8.91185	583.46387	3.22261	1307.51111	-965.87830	
23	0.220				780.25433	9.73225	-632.80969	-719.43353	6.77376	480.94202	698.10693	8.88487	583.45428	3.11027	1307.52405	-965.87244	
24	0.230				780.22070	9.72690	-632.80884	-719.58960	6.96019	480.88931	698.07941	8.90488	583.45221	3.13468	1307.54419	-965.89886	
25	0.240				780.26117	9.68990	-632.76062	-719.44275	6.77395	480.94580	698.09979	8.85508	583.47638	3.14425	1307.55579	-965.86072	
26	0.250				780.22937	9.71747	-632.75598	-719.61804	6.95275	480.90668	698.07471	8.87002	583.48029	3.18512	1307.50635	-965.86200	
27	0.260				780.24725	9.72030	-632.76758	-719.43536	6.80115	480.91364	698.07513	8.87358	583.47766	3.26338	1307.57422	-965.87561	
28	0.270				780.35034	9.74780	-632.69501	-719.44464	6.81048	480.93198	698.10425	8.87811	583.44336	3.13826	1307.51672	-965.91547	
29	0.280				780.23718	9.72213	-632.73328	-719.57703	6.94313	480.91113	698.06830	8.88397	583.46259	3.12902	1307.53040	-965.90881	
30	0.290				780.30243	9.76314	-632.70660	-719.59052	6.97414	480.89661	698.06238	8.89063	583.46381	3.15215	1307.57019	-965.87640	
31	0.300				780.30688	9.72979	-632.71417	-719.44116	6.75302	480.92365	698.07196	8.90240	583.46027	3.17354	1307.55444	-965.85999	
32	0.310				780.32880	9.73551	-632.69885	-719.43579	6.74960	480.89536	698.07672	8.88575	583.44482	3.09408	1307.57361	-965.90881	
33	0.320				780.30145	9.73265	-632.68970	-719.43488	6.81007	480.90836	698.10632	8.86217	583.44281	3.19542	1307.53271	-965.85541	
34	0.330				780.22937	9.73466	-632.76898	-719.47382	6.80518	480.87820	698.07037	8.87796	583.45154	3.21350	1307.56604	-965.90820	
35	0.340				780.27527	9.72791	-632.69653	-719.44403	6.76641	480.91412	698.08832	8.87867	583.48346	3.14456	1307.52588	-965.88184	
36	0.350				780.28510	9.73436	-632.75653	-719.58508	6.97418	480.91095	698.07556	8.88153	583.47913	3.18850	1307.54785	-965.86426	
37	0.360				780.26630	9.73110	-632.74829	-719.45630	6.78132	480.91110	698.07843	8.86665	583.47034	3.19748	1307.56714	-965.86768	
38	0.370				780.27594	9.73430	-632.73126	-719.59912	6.95889	480.91397	698.09094	8.88115	583.44385	3.15660	1307.56458	-965.88043	
39	0.380				780.33209	9.73771	-632.73041	-719.63513	6.97196	480.90073	698.09692	8.87054	583.47607	3.21043	1307.56641	-965.85864	
40	0.390				780.26605	9.75110	-632.73846	-719.44611	6.75179	480.90576	698.06189	8.87775	583.42767	3.18572	1307.52454	-965.87830	
41	0.400				780.26764	9.71713	-632.69324	-719.46167	6.76706	480.93182	698.08966	8.88416	583.46857	3.16311	1307.53992	-965.88190	
42	0.410				780.24213	9.73585	-632.74335	-719.43787	6.78303	480.90067	698.07281	8.88724	583.46106	3.10530	1307.51550	-965.90070	
43	0.420				780.29114	9.75394	-632.71136	-719.61603	6.95986	480.89392	698.07343	8.88744	583.44336	3.17459	1307.54309	-965.86523	
44	0.430				780.32654	9.76335	-632.73035	-719.46161	6.77459	480.85641	698.12354	8.87322	583.45209	3.24038	1307.55835	-965.85474	
45	0.440				780.24939	9.74658	-632.71472	-719.61542	6.94152	480.90210	698.08270	8.89468	583.44519	3.16704	1307.51013	-965.86310	
46	0.450				780.28979	9.77374	-632.72736	-719.60303	6.93194	480.92844	698.09143	8.88587	583.48132	3.15974	1307.51416	-965.87701	
47	0.460				780.25970	9.72211	-632.72290	-719.61517	6.96483	480.91409	698.07172	8.88437	583.47546	3.19987	1307.53687	-965.93524	
48	0.470				780.25372	9.76736	-632.77423	-719.61255	6.97953	480.94318	698.11176	8.87516	583.45508	3.18774	1307.57800	-965.90808	
49	0.480				780.20166	9.79953	-632.81158	-719.48151	6.82015	480.92194	698.06366	8.88005	583.45471	3.19813	1307.59839	-965.82764	
50	0.490				780.24115	9.71829	-632.74115	-719.46991	6.82662	480.83688	698.05060	8.90635	583.46863	3.16240	1307.56616	-965.88300	
51	0.500				780.26788	9.73358	-632.78839	-719.63354	6.94552	480.89252	698.05841	8.90099	583.44513	3.12973	1307.55542	-965.88861	
52	0.510				780.18353	9.74001	-632.82233	-719.43823	6.76027	480.92682	698.10370	8.89455	583.43445	3.17469	1307.55896	-965.89771	
53	0.520				780.23145	9.81364	-632.80023	-719.43799	6.76295	480.93585	698.09369	8.87444	583.43536	3.13545	1307.52087	-965.83752	
54	0.530				780.29718	9.97071	-632.75977	-719.44574	6.80123	480.86209	698.12378	8.85044	583.40308	3.18243	1307.53186	-965.91522	
